PathFileType	4	(X/Y/Z)	Patient5_TMGait_0pt45_1_right_03.trc.trc
DataRate	CameraRate	NumFrames	NumMarkers	Units	OrigDataRate	OrigDataStartFrame	OrigNumFrames
60.085836909871	60.085836909871	4	32	mm	60.085836909871	89	       141
Frame#	Time	R.ASIS			L.ASIS			Chest			R.Shoulder			Neck			L.Shoulder			L.Elbow			L.Wrist			R.Elbow			R.Wrist			L.Thigh.Superior			L.Thigh.Lateral			L.Thigh.Inferior			L.Patella			L.Shank.Superior			L.Shank.Lateral			L.Shank.Inferior			L.Heel			L.Midfoot.Lateral			L.Midfoot.Superior			L.Toe			R.Thigh.Superior			R.Thigh.Lateral			R.Thigh.Inferior			R.Patella			R.Shank.Superior			R.Shank.Lateral			R.Shank.Inferior			R.Heel			R.Midfoot.Lateral			R.Midfoot.Superior			R.Toe			
		X1	Y1	Z1	X2	Y2	Z2	X3	Y3	Z3	X4	Y4	Z4	X5	Y5	Z5	X6	Y6	Z6	X7	Y7	Z7	X8	Y8	Z8	X9	Y9	Z9	X10	Y10	Z10	X11	Y11	Z11	X12	Y12	Z12	X13	Y13	Z13	X14	Y14	Z14	X15	Y15	Z15	X16	Y16	Z16	X17	Y17	Z17	X18	Y18	Z18	X19	Y19	Z19	X20	Y20	Z20	X21	Y21	Z21	X22	Y22	Z22	X23	Y23	Z23	X24	Y24	Z24	X25	Y25	Z25	X26	Y26	Z26	X27	Y27	Z27	X28	Y28	Z28	X29	Y29	Z29	X30	Y30	Z30	X31	Y31	Z31	X32	Y32	Z32	

89	5.934571428571	949.904551703354	1016.358094778061	547.136695012593	981.841580878815	967.948707680305	303.920741238609	1024.849032046084	1453.319252710080	429.016666973021	887.429676491638	1517.882640693715	566.940859149667	905.989186807821	1572.847641873604	380.994729679131	1012.209937524294	1516.509256526564	224.259389453151	995.667621787057	1191.304636631467	88.855927966449	1150.755856485009	951.630789874666	107.397904356504	773.001886718639	1196.799575525799	681.279712794181	988.200174423770	1001.856533528815	674.936730909576	1006.267610830541	752.213858235336	301.763427183664	938.266621023412	677.683491240589	261.845601222059	1010.862967682618	625.536948523703	329.562578006828	1015.955551752737	509.794032715852	340.601439439097	971.975536427185	404.622428450222	361.336228537222	910.188813201920	331.574631297054	284.568029463000	943.533963098531	281.481351071658	373.633262613332	819.398731961139	49.563320499092	384.698886144157	905.672624426145	26.864883091818	320.197700153151	1004.024794278562	89.200032034681	361.946235846154	1111.512211978492	46.866908784816	362.794083664053	982.551786869490	793.483810885332	599.294952773358	899.541881612873	716.143587175077	654.493742489496	995.627578942988	660.106649377415	606.778060454396	992.010793284868	555.275024923597	651.069205143955	911.792640484155	457.689093457181	610.381707401711	805.254836889484	433.691688147965	680.548695139658	831.695735806027	340.267353154892	607.638861995005	627.688548413807	204.237950896812	560.474962729560	665.234991226355	132.870750265556	636.607963893413	791.417916648086	134.861272892207	640.324630938960	856.660554200725	45.056854573171	645.679013180866	
90	5.951214285714	947.894269916659	1017.534653744958	543.451914954727	979.766270851447	967.871281960111	302.084839042275	1022.894888671272	1454.193553375042	426.335738079723	885.283350180873	1518.530472466539	564.127199042282	904.195382170844	1573.584765321123	378.352028118401	1010.536091983077	1517.425800661903	221.775917884259	997.558307476977	1191.497501711981	87.413125379529	1156.278594504982	954.347745337664	107.302210818350	769.911502024569	1197.668631922043	678.198576907965	984.905561353325	1002.504131963687	671.752844313803	1002.556897098145	751.832216948742	300.648102086882	933.318740190861	677.969705870671	261.252665466659	1005.976017719496	625.040973074120	328.197554455562	1010.003363762455	509.244997565827	338.898260945911	965.503875749298	404.177919028394	359.810791897455	902.784598426810	331.707390687221	284.067669498685	936.851324535174	281.426812107636	372.824939970858	811.855189778877	49.524870464862	384.732082576075	898.119361859354	26.850044302628	320.161967063364	996.520564444774	89.197963835017	361.752867448311	1103.977900638351	46.873968150228	362.694878385585	982.252232560117	795.201753158541	598.159158079315	898.633035303827	718.340316086775	653.545055352196	994.007508646339	662.091461352908	605.478650428840	991.179432916050	558.483420491605	651.024929299938	915.060506425485	458.846328972043	612.278539515100	809.301531204341	431.752563805227	681.930334917071	840.966363550975	338.091946586105	611.842440546784	645.053439052140	189.676270644869	565.687849709918	685.091609666587	123.639482472985	645.320665939591	810.550346750544	132.687700453013	650.648371046894	880.308233865701	47.014227804603	660.719175769715	
91	5.967857142857	945.944363506247	1018.446887170079	540.372649444520	977.507585880454	967.700226716854	300.474074658591	1020.908201431846	1454.881213761855	423.689134823253	883.274972854482	1519.084242904305	561.457980306669	902.290386725205	1574.155063817976	375.760997138931	1008.683162918776	1518.094633753619	219.328545467178	999.243529384360	1191.487877193224	86.042081623655	1161.348621705062	956.814321581465	107.596113323717	767.122787380989	1198.484557219259	675.493651719303	981.742951458711	1002.914378972438	668.617734353273	998.884134764100	751.439271881562	299.562865467470	928.427554876596	678.191029008999	260.726413811943	1001.194716647573	624.519259075149	326.862395085206	1004.191713190524	508.672119913388	337.265160764765	959.145706281207	403.723820745276	358.357245145359	895.475072914936	331.850177301288	283.617689811036	930.248926555854	281.366354177076	372.063012234378	804.305987248197	49.437908894183	384.814506174516	890.571078175944	26.840695525205	320.124795440443	989.016053769119	89.196319145376	361.554129836467	1096.447435143320	46.875234658544	362.602780196534	981.267756410403	796.490070183656	596.823986581356	896.958696925667	720.145502075672	652.575175487951	991.635582801207	663.668280997185	604.170292343383	989.757676631075	561.472399535397	651.003282750234	918.581651592877	459.829499603244	614.211320477513	813.874064687314	428.967354091883	683.243301616227	851.561893326219	335.584211849490	616.242409543615	665.588466885297	173.873726321861	571.193323745225	708.006532322388	113.640289975600	654.270061396743	832.294154099522	130.579848056136	661.409071602856	906.838277936892	49.845025673133	676.340303905754	
92	5.984500000000	944.056631719493	1019.121150052807	537.916314072944	975.144344217942	967.489745515670	299.082412959122	1018.867677260185	1455.386019764317	421.113216382559	881.359598915242	1519.547479949516	558.958563531231	900.257003243274	1574.561672516992	373.252265804178	1006.628984309677	1518.513109827721	216.944156716298	1000.736145599386	1191.268724142202	84.786854839177	1165.946093433151	958.988524874681	108.243815226796	764.626702121682	1199.216544881721	673.158013284622	978.752590080059	1003.111566362722	665.567397771820	995.275506404310	751.029834443848	298.500574923880	923.640676089404	678.330534231224	260.258595945736	996.551336929224	623.959724083354	325.547001755307	998.552573803119	508.070950476242	335.714422537141	952.954548426695	403.293025126811	357.039892289149	888.299216541503	331.995827640789	283.223352743483	923.744677864365	281.298062598403	371.363499463316	796.753888242281	49.315695943584	384.935687668248	883.028147322632	26.838997506275	320.086989068292	981.512416140789	89.197083760493	361.350991554276	1088.920007387277	46.868351463229	362.518600542160	979.629758413932	797.406170743642	595.354611868444	894.687433765569	721.582176927724	651.690428555883	988.786952852511	664.945833299418	603.016344352775	988.065356986306	564.303125911496	651.143363842130	922.524120044567	460.851211009939	616.178343859455	819.136447543440	425.689243346501	684.494287195214	863.385185137884	333.208005547665	620.683082798014	688.946422173716	158.078014917223	576.782059819074	733.457172636786	103.786605735945	662.979504952412	856.057910540258	129.052020224477	672.046054256348	935.342055799793	53.869995457694	691.660660996575	
